<svg width="68" height="68" viewBox="0 0 68 68" fill="none" xmlns="http://www.w3.org/2000/svg">
<g clip-path="url(#clip0_25_163)">
<path d="M31.7756 0.0530721C31.6295 0.0663521 31.1647 0.112832 30.7464 0.146032C21.0985 1.01587 12.0615 6.22161 6.33784 14.2228C3.15065 18.6716 1.11218 23.7179 0.341938 29.0631C0.0696989 30.929 0.036499 31.4801 0.036499 34.0099C0.036499 36.5397 0.0696989 37.0909 0.341938 38.9567C2.18785 51.7121 11.2647 62.429 23.5752 66.3997C25.7797 67.1102 28.1037 67.5949 30.7464 67.8871C31.7756 68 36.2244 68 37.2536 67.8871C41.8152 67.3824 45.6797 66.2536 49.491 64.3081C50.0754 64.0093 50.1882 63.9296 50.1086 63.8632C50.0554 63.8234 47.5655 60.4835 44.5775 56.4464L39.146 49.1092L32.34 39.0364C28.595 33.4986 25.5141 28.9702 25.4875 28.9702C25.461 28.9635 25.4344 33.4389 25.4211 38.9036C25.4012 48.4718 25.3946 48.8569 25.2751 49.0827C25.1024 49.408 24.9696 49.5408 24.6907 49.6869C24.4783 49.7931 24.2923 49.8131 23.2897 49.8131H22.141L21.8355 49.6205C21.6363 49.4943 21.4903 49.3283 21.3907 49.1358L21.2512 48.837L21.2645 35.5238L21.2844 22.204L21.4903 21.9451C21.5965 21.8056 21.8223 21.6264 21.9816 21.54C22.2539 21.4072 22.3601 21.394 23.5088 21.394C24.8634 21.394 25.0891 21.4471 25.4411 21.8322C25.5407 21.9384 29.2258 27.4895 33.6348 34.1759C38.0437 40.8624 44.0728 49.9923 47.0343 54.4743L52.4126 62.6216L52.6849 62.4423C55.0952 60.8753 57.6449 58.6442 59.6635 56.3202C63.9596 51.3867 66.7284 45.3709 67.658 38.9567C67.9303 37.0909 67.9635 36.5397 67.9635 34.0099C67.9635 31.4801 67.9303 30.929 67.658 29.0631C65.8121 16.3077 56.7353 5.59081 44.4247 1.62011C42.2535 0.916269 39.9428 0.431551 37.3532 0.139392C36.7157 0.072992 32.3267 -4.77e-05 31.7756 0.0530721ZM45.6797 20.5972C45.9984 20.7565 46.2574 21.062 46.3503 21.3807C46.4035 21.5533 46.4167 25.2451 46.4035 33.565L46.3835 45.5037L44.2787 42.2767L42.1672 39.0497V30.3712C42.1672 24.7604 42.1937 21.6064 42.2336 21.4537C42.3398 21.0819 42.5722 20.7897 42.8909 20.6171C43.1631 20.4776 43.2627 20.4644 44.3052 20.4644C45.2879 20.4644 45.4606 20.4776 45.6797 20.5972Z" fill="white"/>
<path d="M52.0806 62.7677C51.8482 62.9138 51.7752 63.0134 51.981 62.9005C52.1271 62.8142 52.3662 62.6349 52.3263 62.6283C52.3064 62.6283 52.1935 62.6947 52.0806 62.7677ZM51.6225 63.0665C51.503 63.1595 51.503 63.1661 51.649 63.0931C51.7287 63.0533 51.7951 63.0068 51.7951 62.9935C51.7951 62.9404 51.7619 62.9537 51.6225 63.0665ZM51.2905 63.2657C51.171 63.3587 51.171 63.3653 51.317 63.2923C51.3967 63.2525 51.4631 63.206 51.4631 63.1927C51.4631 63.1396 51.4299 63.1529 51.2905 63.2657ZM50.9585 63.4649C50.839 63.5579 50.839 63.5645 50.985 63.4915C51.0647 63.4517 51.1311 63.4052 51.1311 63.3919C51.1311 63.3388 51.0979 63.3521 50.9585 63.4649ZM50.4538 63.7305C50.2015 63.8633 50.2148 63.9165 50.4671 63.7903C50.58 63.7305 50.6663 63.6708 50.6663 63.6575C50.6663 63.611 50.6597 63.6177 50.4538 63.7305Z" fill="white"/>
</g>
<defs>
<clipPath id="clip0_25_163">
<rect width="68" height="68" fill="white"/>
</clipPath>
</defs>
</svg>
